<svg version="1" xmlns="http://www.w3.org/2000/svg" viewBox="0 0 256.000000 256.000000"><path d="M213.4 6.2c-10.6 3.4-19.5 16-19.5 27.6-.1 7.9 2.2 14.8 6.6 20 1.9 2.2 3.5 4.6 3.5 5.4 0 .7-6.5 20.4-14.4 43.8l-14.3 42.5-5.9 1.7-5.9 1.8-3.6-3.8c-2-2-14.4-15.4-27.7-29.8l-24-26 .5-8.1c.7-10.3-1.2-16.4-7.2-23.1-6-6.6-12.8-9.6-22-9.6-11.7-.1-21.2 6-26.6 17-4.9 10-2.5 25 5.3 33.1l3.1 3.2-14.9 44C33.2 185 31.3 190 29.4 190c-4.9 0-11.9 3.5-17 8.4-22.4 22-1 58.9 29.1 50.2 7.5-2.3 16.3-10.6 18.8-18 3.4-9.9 1.6-21.3-4.3-28.7l-2.9-3.7 15.2-45c14.1-41.9 15.4-45.1 17.7-45.5 1.4-.3 3.2-.8 4.1-1.2 1.1-.4 9.2 7.7 29.6 29.8l28.1 30.4-1 5.2c-1 5.9.8 15.2 4.3 20.8 3.1 4.9 9.6 10 15.2 11.9 14.6 4.9 29.6-1.5 36.4-15.4 4.9-10 3.1-24.4-4-32l-2.2-2.4 15-44.5c8.2-24.4 15.4-44.8 16-45.3.5-.4 2.4-1.1 4.2-1.4 4.7-1.1 12-6.3 15.2-11 4.1-6 6.5-14.7 5.7-21-1.4-11.1-9.6-21.7-19.3-25-5.1-1.8-15.1-1.9-19.9-.4z"/></svg>