<svg version="1" xmlns="http://www.w3.org/2000/svg" viewBox="0 0 200.000000 200.000000"><path d="M171.5 25.2c-13.6 4.9-18.1 22.7-8.4 33.3 1.8 2 1.6 2.5-12.8 29.3-13.1 24.3-14.9 27.3-16.7 26.7-5.4-1.6-9.7-1.6-14.4-.1l-5 1.7-10.9-7.9c-8.2-6-10.7-8.4-10.4-9.8.2-1.1.4-5.1.5-9.1.1-6.4-.2-7.6-2.9-11.5-4.3-5.9-9.6-8.8-16.7-8.8s-9.6 1-14.7 5.6c-7.3 6.5-8.8 18.1-3.5 26L58 104l-16.9 26.8c-15.2 24.2-17.1 26.7-19.7 27C8.1 158.9 0 166.9 0 178.9c0 12.5 11.4 22.6 23.5 20.6 14.5-2.3 22.4-18 15.4-30.6l-2.5-4.4 17.1-26.9c14.3-22.7 17.4-27 19.5-27.2 8.6-.8 8.2-1 20.7 8.1l12.2 8.8-.6 4.7c-1.8 15.6 14.8 27.7 29.2 21.1 4.9-2.2 9.9-7.7 11.5-12.6.8-2.3 1-5.9.6-9.5l-.7-5.7 15.9-29.4 15.9-29.3 4.6-1.2c10.8-2.8 17-10.2 17-20.4 0-11.3-8.1-20.1-19-20.7-3.2-.1-7.1.2-8.8.9zm12 14.8c4 4.4.9 12-4.9 12-5.9 0-9.1-9.2-4.4-12.4 3.1-2.2 7.1-2 9.3.4zM78.2 84.7c3.6 3.2 1.6 10.5-3.2 11.4-5.6 1.1-10.4-4.5-7.9-9.3.6-1.2 1.7-2.6 2.3-3 2-1.3 6.9-.8 8.8.9zm52.3 44.8c3.1 3 3.2 6.2.3 9.2-4.1 4.4-11.8 1.7-11.8-4.2 0-3.1 4.1-7.5 7-7.5 1.2 0 3.2 1.1 4.5 2.5zM25.5 174c4 4.4.9 12-4.9 12-3.3 0-6.6-3.6-6.6-7 0-6.1 7.6-9.3 11.5-5z"/></svg>