<?xml version="1.0" standalone="no"?>
<!DOCTYPE svg PUBLIC "-//W3C//DTD SVG 20010904//EN"
 "http://www.w3.org/TR/2001/REC-SVG-20010904/DTD/svg10.dtd">
<svg version="1.0" xmlns="http://www.w3.org/2000/svg"
 width="100%" height="100%" viewBox="0 0 200.000000 200.000000"
 preserveAspectRatio="xMidYMid meet">
<metadata>
Created by potrace 1.15, written by Peter Selinger 2001-2017
</metadata>
<g transform="translate(0.000000,200.000000) scale(0.100000,-0.100000)"
fill="#000000" stroke="none">
<path d="M1715 1748 c-136 -49 -181 -227 -84 -333 18 -20 16 -25 -128 -293
-131 -243 -149 -273 -167 -267 -54 16 -97 16 -144 1 l-50 -17 -109 79 c-82 60
-107 84 -104 98 2 11 4 51 5 91 1 64 -2 76 -29 115 -43 59 -96 88 -167 88 -71
0 -96 -10 -147 -56 -73 -65 -88 -181 -35 -260 l24 -34 -169 -268 c-152 -242
-171 -267 -197 -270 -133 -11 -214 -91 -214 -211 0 -125 114 -226 235 -206
145 23 224 180 154 306 l-25 44 171 269 c143 227 174 270 195 272 86 8 82 10
207 -81 l122 -88 -6 -47 c-18 -156 148 -277 292 -211 49 22 99 77 115 126 8
23 10 59 6 95 l-7 57 159 294 159 293 46 12 c108 28 170 102 170 204 0 113
-81 201 -190 207 -32 1 -71 -2 -88 -9z m120 -148 c40 -44 9 -120 -49 -120 -59
0 -91 92 -44 124 31 22 71 20 93 -4z m-1053 -447 c36 -32 16 -105 -32 -114
-56 -11 -104 45 -79 93 6 12 17 26 23 30 20 13 69 8 88 -9z m523 -448 c31 -30
32 -62 3 -92 -41 -44 -118 -17 -118 42 0 31 41 75 70 75 12 0 32 -11 45 -25z
m-1050 -445 c40 -44 9 -120 -49 -120 -33 0 -66 36 -66 70 0 61 76 93 115 50z"/>
</g>
</svg>
