<?xml version="1.0" standalone="no"?>
<!DOCTYPE svg PUBLIC "-//W3C//DTD SVG 20010904//EN"
 "http://www.w3.org/TR/2001/REC-SVG-20010904/DTD/svg10.dtd">
<svg version="1.0" xmlns="http://www.w3.org/2000/svg"
 width="100%" height="100%" viewBox="0 0 256.000000 256.000000"
 preserveAspectRatio="xMidYMid meet">
<metadata>
Created by potrace 1.14, written by Peter Selinger 2001-2017
</metadata>
<g transform="translate(0.000000,256.000000) scale(0.100000,-0.100000)"
fill="#000000" stroke="none">
<path d="M2134 2498 c-106 -34 -195 -160 -195 -276 -1 -79 22 -148 66 -200 19
-22 35 -46 35 -54 0 -7 -65 -204 -144 -438 l-143 -425 -59 -17 -59 -18 -36 38
c-20 20 -144 154 -277 298 l-240 260 5 81 c7 103 -12 164 -72 231 -60 66 -128
96 -220 96 -117 1 -212 -60 -266 -170 -49 -100 -25 -250 53 -331 l31 -32 -149
-440 c-132 -391 -151 -441 -170 -441 -49 0 -119 -35 -170 -84 -224 -220 -10
-589 291 -502 75 23 163 106 188 180 34 99 16 213 -43 287 l-29 37 152 450
c141 419 154 451 177 455 14 3 32 8 41 12 11 4 92 -77 296 -298 l281 -304 -10
-52 c-10 -59 8 -152 43 -208 31 -49 96 -100 152 -119 146 -49 296 15 364 154
49 100 31 244 -40 320 l-22 24 150 445 c82 244 154 448 160 453 5 4 24 11 42
14 47 11 120 63 152 110 41 60 65 147 57 210 -14 111 -96 217 -193 250 -51 18
-151 19 -199 4z"/>
</g>
</svg>
